<?xml version="1.0" standalone="no"?>
<!DOCTYPE svg PUBLIC "-//W3C//DTD SVG 20010904//EN"
 "http://www.w3.org/TR/2001/REC-SVG-20010904/DTD/svg10.dtd">
<svg version="1.0" xmlns="http://www.w3.org/2000/svg"
 width="1000.000000pt" height="1000.000000pt" viewBox="0 0 1000.000000 1000.000000"
 preserveAspectRatio="xMidYMid meet">

<g transform="translate(0.000000,1000.000000) scale(0.100000,-0.100000)"
fill="#000000" stroke="none">
<path d="M4740 9925 c-189 -26 -344 -76 -520 -166 -706 -364 -1036 -1174 -785
-1927 240 -720 973 -1178 1725 -1078 198 27 348 74 530 167 703 360 1036 1176
786 1924 -243 726 -979 1184 -1736 1080z"/>
<path d="M4762 6579 c-174 -20 -365 -79 -532 -165 -448 -228 -744 -619 -851
-1124 -33 -153 -33 -438 -2 -595 140 -691 679 -1198 1373 -1291 712 -94 1418
314 1687 977 369 908 -140 1917 -1089 2160 -175 44 -403 59 -586 38z"/>
<path d="M8170 6575 c-528 -73 -993 -407 -1225 -880 -57 -117 -117 -299 -141
-430 -28 -149 -26 -421 4 -572 72 -358 259 -683 524 -909 500 -428 1193 -514
1774 -221 449 227 748 621 855 1127 30 143 33 427 5 575 -66 354 -254 690
-516 921 -349 307 -825 451 -1280 389z"/>
<path d="M8180 3216 c-193 -28 -345 -77 -520 -167 -781 -403 -1092 -1351 -699
-2132 262 -522 779 -856 1367 -884 438 -21 883 151 1196 462 490 486 614 1231
308 1842 -228 454 -638 765 -1139 863 -139 28 -380 35 -513 16z"/>
<path d="M1430 3104 c-14 -2 -59 -9 -100 -15 -232 -35 -478 -138 -678 -286
-309 -229 -526 -579 -598 -968 -25 -133 -25 -400 -1 -533 88 -478 401 -895
832 -1107 141 -69 238 -102 397 -137 138 -29 426 -32 563 -5 644 127 1119 596
1247 1230 32 157 32 434 0 583 -102 478 -403 871 -827 1079 -224 110 -408 155
-655 160 -85 2 -166 2 -180 -1z"/>
</g>
</svg>
